<svg xmlns="http://www.w3.org/2000/svg" xmlns:xlink="http://www.w3.org/1999/xlink" width="972" height="648" viewBox="0 0 972 648">
  <defs>
    <linearGradient id="linear-gradient" y1="1" x2="1" gradientUnits="objectBoundingBox">
      <stop offset="0" stop-color="#fff"/>
      <stop offset="1" stop-color="gray" stop-opacity="0"/>
    </linearGradient>
  </defs>
  <g id="Group_2" data-name="Group 2" transform="translate(1794 -880)">
    <g id="Group_1" data-name="Group 1" transform="translate(-2742 880)">
      <rect id="Rectangle_55" data-name="Rectangle 55" width="972" height="648" transform="translate(948)" fill="#e6e6e6"/>
      <path id="Rectangle_1" data-name="Rectangle 1" d="M0,0H108V108h0A108,108,0,0,1,0,0Z" transform="translate(1812)"/>
      <rect id="Rectangle_52" data-name="Rectangle 52" width="108" height="108" transform="translate(1812 324)" fill="#979797"/>
      <rect id="Rectangle_18" data-name="Rectangle 18" width="108" height="108" transform="translate(1812 108)" fill="#fff"/>
      <path id="Rectangle_53" data-name="Rectangle 53" d="M0,0H108V108h0A108,108,0,0,1,0,0Z" transform="translate(1812 432)" fill="#fff"/>
      <path id="Rectangle_27" data-name="Rectangle 27" d="M0,0H108V108h0A108,108,0,0,1,0,0Z" transform="translate(1812 216)"/>
      <rect id="Rectangle_54" data-name="Rectangle 54" width="108" height="108" transform="translate(1812 540)" fill="#fff"/>
      <rect id="Rectangle_2" data-name="Rectangle 2" width="108" height="108" transform="translate(1704)" fill="#989898"/>
      <path id="Rectangle_49" data-name="Rectangle 49" d="M0,0H0A108,108,0,0,1,108,108H0Z" transform="translate(1704 324)" fill="#fff"/>
      <path id="Rectangle_17" data-name="Rectangle 17" d="M0,0H108V108h0A108,108,0,0,1,0,0Z" transform="translate(1704 108)" fill="#535353"/>
      <rect id="Rectangle_50" data-name="Rectangle 50" width="108" height="108" transform="translate(1704 432)" fill="#535353"/>
      <rect id="Rectangle_26" data-name="Rectangle 26" width="108" height="108" transform="translate(1704 216)" fill="#fff"/>
      <path id="Rectangle_51" data-name="Rectangle 51" d="M0,0H0A108,108,0,0,1,108,108H0Z" transform="translate(1704 540)" fill="#989898"/>
      <path id="Rectangle_3" data-name="Rectangle 3" d="M0,0H108V108h0A108,108,0,0,1,0,0Z" transform="translate(1596)" fill="#fff"/>
      <rect id="Rectangle_46" data-name="Rectangle 46" width="108" height="108" transform="translate(1596 324)" fill="#fff"/>
      <rect id="Rectangle_16" data-name="Rectangle 16" width="108" height="108" transform="translate(1596 108)" fill="#fff"/>
      <path id="Rectangle_47" data-name="Rectangle 47" d="M0,0H108V108h0A108,108,0,0,1,0,0Z" transform="translate(1596 432)" fill="#fff"/>
      <path id="Rectangle_25" data-name="Rectangle 25" d="M0,0H108V108h0A108,108,0,0,1,0,0Z" transform="translate(1596 216)"/>
      <rect id="Rectangle_48" data-name="Rectangle 48" width="108" height="108" transform="translate(1596 540)" fill="#fff"/>
      <rect id="Rectangle_4" data-name="Rectangle 4" width="108" height="108" transform="translate(1488)"/>
      <path id="Rectangle_40" data-name="Rectangle 40" d="M0,0H0A108,108,0,0,1,108,108H0Z" transform="translate(1488 324)"/>
      <path id="Rectangle_12" data-name="Rectangle 12" d="M0,0H0A108,108,0,0,1,108,108H0Z" transform="translate(1488 108)" fill="#fff"/>
      <rect id="Rectangle_41" data-name="Rectangle 41" width="108" height="108" transform="translate(1488 432)" fill="#fff"/>
      <rect id="Rectangle_21" data-name="Rectangle 21" width="108" height="108" transform="translate(1488 216)" fill="#989898"/>
      <path id="Rectangle_42" data-name="Rectangle 42" d="M0,0H108V108h0A108,108,0,0,1,0,0Z" transform="translate(1488 540)"/>
      <path id="Rectangle_5" data-name="Rectangle 5" d="M0,0H108V108h0A108,108,0,0,1,0,0Z" transform="translate(1380)" fill="#fff"/>
      <rect id="Rectangle_43" data-name="Rectangle 43" width="108" height="108" transform="translate(1380 324)" fill="#535353"/>
      <rect id="Rectangle_13" data-name="Rectangle 13" width="108" height="108" transform="translate(1380 108)" fill="#535353"/>
      <path id="Rectangle_44" data-name="Rectangle 44" d="M0,0H0A108,108,0,0,1,108,108H0Z" transform="translate(1380 432)" fill="#fff"/>
      <path id="Rectangle_22" data-name="Rectangle 22" d="M0,0H108V108h0A108,108,0,0,1,0,0Z" transform="translate(1380 216)" fill="#fff"/>
      <rect id="Rectangle_45" data-name="Rectangle 45" width="108" height="108" transform="translate(1380 540)" fill="#fff"/>
      <rect id="Rectangle_6" data-name="Rectangle 6" width="108" height="108" transform="translate(1272)" fill="#989898"/>
      <path id="Rectangle_29" data-name="Rectangle 29" d="M0,0H108V108h0A108,108,0,0,1,0,0Z" transform="translate(1272 324)" fill="#989898"/>
      <path id="Rectangle_14" data-name="Rectangle 14" d="M0,0H0A108,108,0,0,1,108,108H0Z" transform="translate(1272 108)"/>
      <rect id="Rectangle_30" data-name="Rectangle 30" width="108" height="108" transform="translate(1272 432)" fill="#fff"/>
      <rect id="Rectangle_23" data-name="Rectangle 23" width="108" height="108" transform="translate(1272 216)" fill="#fff"/>
      <path id="Rectangle_31" data-name="Rectangle 31" d="M0,0H0A108,108,0,0,1,108,108H0Z" transform="translate(1272 540)" fill="#535353"/>
      <path id="Rectangle_7" data-name="Rectangle 7" d="M0,0H108V108h0A108,108,0,0,1,0,0Z" transform="translate(1164)" fill="#fff"/>
      <rect id="Rectangle_32" data-name="Rectangle 32" width="108" height="108" transform="translate(1164 324)" fill="#fff"/>
      <rect id="Rectangle_15" data-name="Rectangle 15" width="108" height="108" transform="translate(1164 108)" fill="#fff"/>
      <path id="Rectangle_33" data-name="Rectangle 33" d="M0,0H108V108h0A108,108,0,0,1,0,0Z" transform="translate(1164 432)" fill="#535353"/>
      <path id="Rectangle_24" data-name="Rectangle 24" d="M0,0H0A108,108,0,0,1,108,108H0Z" transform="translate(1164 216)"/>
      <rect id="Rectangle_34" data-name="Rectangle 34" width="108" height="108" transform="translate(1164 540)" fill="#fff"/>
      <rect id="Rectangle_8" data-name="Rectangle 8" width="108" height="108" transform="translate(1056)" fill="#fff"/>
      <path id="Rectangle_35" data-name="Rectangle 35" d="M0,0H0A108,108,0,0,1,108,108H0Z" transform="translate(1056 324)" fill="#fff"/>
      <path id="Rectangle_11" data-name="Rectangle 11" d="M0,0H108V108h0A108,108,0,0,1,0,0Z" transform="translate(1056 108)" fill="#fff"/>
      <rect id="Rectangle_36" data-name="Rectangle 36" width="108" height="108" transform="translate(1056 432)" fill="#989898"/>
      <rect id="Rectangle_20" data-name="Rectangle 20" width="108" height="108" transform="translate(1056 216)" fill="#989898"/>
      <path id="Rectangle_37" data-name="Rectangle 37" d="M0,0H0A108,108,0,0,1,108,108H0Z" transform="translate(1056 540)" fill="#fff"/>
      <path id="Rectangle_9" data-name="Rectangle 9" d="M0,0H0A108,108,0,0,1,108,108H0Z" transform="translate(948)"/>
      <rect id="Rectangle_38" data-name="Rectangle 38" width="108" height="108" transform="translate(948 324)"/>
      <rect id="Rectangle_10" data-name="Rectangle 10" width="108" height="108" transform="translate(948 108)" fill="#fff"/>
      <path id="Rectangle_39" data-name="Rectangle 39" d="M0,0H108V108h0A108,108,0,0,1,0,0Z" transform="translate(948 432)" fill="#fff"/>
      <path id="Rectangle_19" data-name="Rectangle 19" d="M0,0H108V108h0A108,108,0,0,1,0,0Z" transform="translate(948 216)" fill="#535353"/>
      <path id="Rectangle_28" data-name="Rectangle 28" d="M0,0H0A108,108,0,0,1,108,108H0Z" transform="translate(948 540)" fill="#989898"/>
    </g>
    <rect id="Rectangle_7-2" data-name="Rectangle 7" width="972" height="648" transform="translate(-1794 880)" fill="url(#linear-gradient)"/>
  </g>
</svg>
