<svg xmlns="http://www.w3.org/2000/svg" xmlns:xlink="http://www.w3.org/1999/xlink" width="482" height="485" viewBox="0 0 482 485">
  <defs>
    <linearGradient id="linear-gradient" x1="0.981" x2="0" y2="1" gradientUnits="objectBoundingBox">
      <stop offset="0" stop-color="#fff" stop-opacity="0"/>
      <stop offset="1" stop-color="#fff" stop-opacity="0.992"/>
      <stop offset="1" stop-color="#fff"/>
    </linearGradient>
  </defs>
  <g id="Group_2" data-name="Group 2" transform="translate(-1164 -205)">
    <rect id="Rectangle_9" data-name="Rectangle 9" width="80" height="80" transform="translate(1165 528)" fill="#2d0c0c"/>
    <rect id="Rectangle_22" data-name="Rectangle 22" width="80" height="80" transform="translate(1406 607)" fill="#2d0c0c"/>
    <rect id="Rectangle_10" data-name="Rectangle 10" width="80" height="80" transform="translate(1245 448)" fill="#f2f2f2"/>
    <rect id="Rectangle_28" data-name="Rectangle 28" width="80" height="80" transform="translate(1565 610)" fill="#f2f2f2"/>
    <rect id="Rectangle_27" data-name="Rectangle 27" width="80" height="80" transform="translate(1165 207)" fill="#f2f2f2"/>
    <rect id="Rectangle_11" data-name="Rectangle 11" width="80" height="80" transform="translate(1325 528)" fill="#555"/>
    <rect id="Rectangle_24" data-name="Rectangle 24" width="80" height="80" transform="translate(1406 207)" fill="#555"/>
    <rect id="Rectangle_12" data-name="Rectangle 12" width="80" height="80" transform="translate(1245 608)" fill="#ddd"/>
    <rect id="Rectangle_13" data-name="Rectangle 13" width="80" height="81" transform="translate(1486 528)"/>
    <rect id="Rectangle_26" data-name="Rectangle 26" width="80" height="81" transform="translate(1566 287)"/>
    <rect id="Rectangle_14" data-name="Rectangle 14" width="80" height="80" transform="translate(1325 448)" fill="#ddd"/>
    <rect id="Rectangle_15" data-name="Rectangle 15" width="80" height="81" transform="translate(1486 368)" fill="#ddd"/>
    <rect id="Rectangle_21" data-name="Rectangle 21" width="80" height="81" transform="translate(1406 527)" fill="#ddd"/>
    <rect id="Rectangle_25" data-name="Rectangle 25" width="80" height="81" transform="translate(1486 207)" fill="#ddd"/>
    <rect id="Rectangle_16" data-name="Rectangle 16" width="80" height="80" transform="translate(1566 449)"/>
    <rect id="Rectangle_17" data-name="Rectangle 17" width="81" height="80" transform="translate(1164 367)"/>
    <rect id="Rectangle_18" data-name="Rectangle 18" width="80" height="80" transform="translate(1245 287)" fill="#777"/>
    <rect id="Rectangle_19" data-name="Rectangle 19" width="81" height="80" transform="translate(1405 287)"/>
    <rect id="Rectangle_20" data-name="Rectangle 20" width="80" height="80" transform="translate(1325 287)" fill="#ddd"/>
    <rect id="Rectangle_23" data-name="Rectangle 23" width="482" height="483" transform="translate(1164 205)" fill="url(#linear-gradient)"/>
  </g>
</svg>
