<svg xmlns="http://www.w3.org/2000/svg" width="2500" height="3598" viewBox="0 0 2500 3598">
  <g id="_20769731_Sandy_Bus-20_Single-12" data-name="20769731_Sandy_Bus-20_Single-12" transform="translate(0 669.255)">
    <g id="Background" transform="translate(0 -669)">
      <rect id="Rectangle_1" data-name="Rectangle 1" width="2500" height="3598" transform="translate(0 -0.255)" fill="#dedddc"/>
    </g>
    <g id="Illustration" transform="translate(335 215.533)">
      <g id="Big_data_analytics_1_">
        <circle id="Ellipse_1" data-name="Ellipse 1" cx="915" cy="915" r="915" transform="translate(0 0.212)" fill="#f2e6dc"/>
        <g id="Group_3" data-name="Group 3" transform="translate(30.336 26.97)">
          <path id="Path_1" data-name="Path 1" d="M1105.18,1570.24c-107.4,0-209.861-33.387-296.307-96.552a503.894,503.894,0,0,1-180.327-245.816,1,1,0,0,1,1.9-.637,500.367,500.367,0,0,0,474.736,341.005c276.119,0,500.758-224.639,500.758-500.758S1381.3,566.729,1105.18,566.729A501.352,501.352,0,0,0,647.055,864.986a1,1,0,1,1-1.828-.808A503.035,503.035,0,1,1,1105.18,1570.24Z" transform="translate(-365.336 -361.97)" fill="#d3bba3"/>
          <path id="Path_2" data-name="Path 2" d="M1105.18,1503.14a435.766,435.766,0,0,1-401.412-266.074,1,1,0,1,1,1.842-.78,433.052,433.052,0,0,0,399.57,264.854c3.8,0,7.665-.051,11.489-.15a1,1,0,0,1,.052,2C1112.88,1503.08,1109,1503.14,1105.18,1503.14Z" transform="translate(-365.336 -361.97)" fill="#d3bba3"/>
          <path id="Path_3" data-name="Path 3" d="M730.676,847.747a1,1,0,0,1-.861-1.509,435.446,435.446,0,0,1,375.365-214.4q2.133,0,4.263.021a1,1,0,0,1,.99,1.01.985.985,0,0,1-1.01.99q-2.119-.021-4.243-.021c-152.712,0-295.884,81.777-373.643,213.418A1,1,0,0,1,730.676,847.747Z" transform="translate(-365.336 -361.97)" fill="#d3bba3"/>
          <path id="Path_4" data-name="Path 4" d="M1517.24,929.829a1,1,0,0,1-.948-.682,432.87,432.87,0,0,0-295.875-279.831,1,1,0,1,1,.53-1.927A436.614,436.614,0,0,1,1518.19,928.511a1,1,0,0,1-.63,1.267A.976.976,0,0,1,1517.24,929.829Z" transform="translate(-365.336 -361.97)" fill="#d3bba3"/>
          <circle id="Ellipse_2" data-name="Ellipse 2" cx="46.993" cy="46.993" r="46.993" transform="translate(283.214 393.148) rotate(-45)" fill="#fff"/>
          <path id="Path_5" data-name="Path 5" d="M715.018,756.119a1,1,0,0,1-.707-.293L488.222,529.737H366.336a1,1,0,0,1,0-2h122.3a1,1,0,0,1,.707.293L715.725,754.412a1,1,0,0,1-.707,1.707Z" transform="translate(-365.336 -361.97)" fill="#d3bba3"/>
          <circle id="Ellipse_3" data-name="Ellipse 3" cx="46.993" cy="46.993" r="46.993" transform="translate(283.214 393.148) rotate(-45)" fill="#fff"/>
          <g id="Group_1" data-name="Group 1" transform="translate(69.761 107.194)">
            <ellipse id="Ellipse_4" data-name="Ellipse 4" cx="46.992" cy="46.993" rx="46.992" ry="46.993" transform="translate(0 21.598) rotate(-13.286)" fill="#fff"/>
            <path id="Path_6" data-name="Path 6" d="M491.628,573.737a47.992,47.992,0,1,1,47.992-47.992A48.046,48.046,0,0,1,491.628,573.737Zm0-93.984a45.992,45.992,0,1,0,45.992,45.992A46.044,46.044,0,0,0,491.628,479.753Z" transform="translate(-435.097 -469.163)" fill="#d3bba3"/>
          </g>
          <path id="Path_7" data-name="Path 7" d="M736.542,1753.54H444.636a1,1,0,0,1,0-2H736.128L940.94,1546.728a1,1,0,0,1,1.414,1.414l-205.1,205.1A.976.976,0,0,1,736.542,1753.54Z" transform="translate(-365.336 -361.97)" fill="#d3bba3"/>
          <circle id="Ellipse_5" data-name="Ellipse 5" cx="46.993" cy="46.993" r="46.993" transform="translate(509.839 1185.465) rotate(-45)" fill="#fff"/>
          <circle id="Ellipse_6" data-name="Ellipse 6" cx="46.993" cy="46.993" r="46.993" transform="translate(315.63 1416.017) rotate(-67.5)" fill="#fff"/>
          <circle id="Ellipse_7" data-name="Ellipse 7" cx="46.993" cy="46.993" r="46.993" transform="translate(12.826 1390.562) rotate(-45)" fill="#e6d0be"/>
          <path id="Path_8" data-name="Path 8" d="M693.142,1356.33H444.586a1,1,0,0,1,0-2H693.142a1,1,0,0,1,0,2Z" transform="translate(-365.336 -361.97)" fill="#d3bba3"/>
          <circle id="Ellipse_8" data-name="Ellipse 8" cx="46.993" cy="46.993" r="46.993" transform="translate(12.782 993.353) rotate(-45)" fill="#e6d0be"/>
          <ellipse id="Ellipse_9" data-name="Ellipse 9" cx="46.993" cy="46.992" rx="46.993" ry="46.992" transform="translate(277.631 1036.906) rotate(-85.934)" fill="#fff"/>
          <path id="Path_9" data-name="Path 9" d="M1170.1,572.246a1,1,0,0,1-.707-1.707l161.284-161.284a1,1,0,0,1,.707-.293h552.331a1,1,0,0,1,0,2H1331.8L1170.807,571.953A.994.994,0,0,1,1170.1,572.246Z" transform="translate(-365.336 -361.97)" fill="#d3bba3"/>
          <ellipse id="Ellipse_10" data-name="Ellipse 10" cx="46.993" cy="46.992" rx="46.993" ry="46.992" transform="matrix(0.984, -0.178, 0.178, 0.984, 750.18, 171.476)" fill="#fff"/>
          <g id="Group_2" data-name="Group 2" transform="translate(921.881)">
            <circle id="Ellipse_11" data-name="Ellipse 11" cx="46.993" cy="46.993" r="46.993" transform="translate(1 0.999)" fill="#f2e6dc"/>
            <path id="Path_10" data-name="Path 10" d="M1335.21,457.955a47.993,47.993,0,1,1,47.992-47.993A48.047,48.047,0,0,1,1335.21,457.955Zm0-93.985a45.993,45.993,0,1,0,45.992,45.992A46.045,46.045,0,0,0,1335.21,363.97Z" transform="translate(-1287.217 -361.97)" fill="#d3bba3"/>
          </g>
          <circle id="Ellipse_12" data-name="Ellipse 12" cx="46.993" cy="46.993" r="46.993" transform="translate(1471.381 0.999)" fill="#e6d0be"/>
          <path id="Path_11" data-name="Path 11" d="M1556.59,709.126a1,1,0,0,1-.707-1.707L1727.3,536a1,1,0,0,1,.707-.293h287.1a1,1,0,0,1,0,2H1728.425L1557.3,708.833A1.006,1.006,0,0,1,1556.59,709.126Z" transform="translate(-365.336 -361.97)" fill="#d3bba3"/>
          <path id="Path_12" data-name="Path 12" d="M1589.71,936.452a1,1,0,0,1-.707-1.707l185.784-185.783a1,1,0,0,1,.707-.293h308.25a1,1,0,0,1,0,2H1775.908l-185.491,185.49A1.011,1.011,0,0,1,1589.71,936.452Z" transform="translate(-365.336 -361.97)" fill="#d3bba3"/>
          <circle id="Ellipse_13" data-name="Ellipse 13" cx="46.993" cy="46.993" r="46.993" transform="translate(1664.405 352.63) rotate(-13.286)" fill="#e6d0be"/>
          <circle id="Ellipse_14" data-name="Ellipse 14" cx="46.993" cy="46.993" r="46.993" transform="translate(1167.808 538.427) rotate(-13.286)" fill="#fff"/>
          <path id="Path_13" data-name="Path 13" d="M2054.63,1729.01H1634.66a1,1,0,0,1-.707-.293L1385.63,1480.394a1,1,0,0,1,1.414-1.414l248.03,248.03h419.551a1,1,0,0,1,0,2Z" transform="translate(-365.336 -361.97)" fill="#d3bba3"/>
          <ellipse id="Ellipse_15" data-name="Ellipse 15" cx="46.992" cy="46.993" rx="46.992" ry="46.993" transform="translate(964.475 1082.646) rotate(-13.286)" fill="#fff"/>
        </g>
        <path id="Path_14" data-name="Path 14" d="M811.688,912.24A105.572,105.572,0,0,1,882.8,939.649c-.264-4.179-.413-8.388-.413-12.633,0-108.885,88.268-197.154,197.153-197.154s197.153,88.269,197.153,197.154a196.973,196.973,0,0,1-9.509,60.614,70.716,70.716,0,1,1,25.846,136.539H811.688a105.964,105.964,0,0,1,0-211.929Z" transform="translate(-335 -335)" fill="#fff"/>
        <g id="Group_7" data-name="Group 7" transform="translate(441.764 910.01)">
          <g id="Group_4" data-name="Group 4">
            <path id="Path_15" data-name="Path 15" d="M1538.38,1315.38s-584.172-19.39-589.688,2.045L776.764,1985.3H1719.6l171.923-667.867C1897.05,1296,1538.38,1315.38,1538.38,1315.38Z" transform="translate(-776.764 -1245.01)" fill="#fff"/>
            <path id="Path_16" data-name="Path 16" d="M1910.17,1245.01H967.33l-18.64,72.43h942.84Z" transform="translate(-776.764 -1245.01)" fill="#e6d0be"/>
            <path id="Path_17" data-name="Path 17" d="M1022.51,1281.73c-2.342,9.1-11.615,16.473-20.713,16.473s-14.575-7.375-12.233-16.473,11.615-16.473,20.713-16.473S1024.85,1272.63,1022.51,1281.73Z" transform="translate(-776.764 -1245.01)" fill="#fff"/>
            <ellipse id="Ellipse_16" data-name="Ellipse 16" cx="18.729" cy="14.489" rx="18.729" ry="14.489" transform="translate(258.837 38.281) rotate(-41.331)" fill="#fff"/>
            <ellipse id="Ellipse_17" data-name="Ellipse 17" cx="18.729" cy="14.489" rx="18.729" ry="14.489" transform="translate(312.066 38.279) rotate(-41.331)" fill="#fff"/>
          </g>
          <g id="Group_5" data-name="Group 5" transform="translate(168.72 263.18)">
            <path id="Path_18" data-name="Path 18" d="M1512.27,1533.1H945.484l6.411-24.91H1518.68Z" transform="translate(-945.484 -1508.19)" fill="#e6d0be"/>
            <path id="Path_19" data-name="Path 19" d="M1753.71,1533.1h-203.7l6.41-24.91h203.7Z" transform="translate(-945.484 -1508.19)" fill="#e6d0be"/>
            <path id="Path_20" data-name="Path 20" d="M1350.72,1613.58H1187.26l6.42-24.91h163.46Z" transform="translate(-945.484 -1508.19)" fill="#e6d0be"/>
            <path id="Path_21" data-name="Path 21" d="M1712.88,1613.58H1388.46l6.41-24.91h324.42Z" transform="translate(-945.484 -1508.19)" fill="#e6d0be"/>
            <path id="Path_22" data-name="Path 22" d="M1288.59,1855.02H1125.13l6.41-24.91H1295Z" transform="translate(-945.484 -1508.19)" fill="#e6d0be"/>
            <path id="Path_23" data-name="Path 23" d="M1650.74,1855.02H1326.32l6.41-24.91h324.42Z" transform="translate(-945.484 -1508.19)" fill="#e6d0be"/>
            <path id="Path_24" data-name="Path 24" d="M1611.69,1694.06H1267.15l6.41-24.91H1618.1Z" transform="translate(-945.484 -1508.19)" fill="#e6d0be"/>
            <path id="Path_25" data-name="Path 25" d="M1430.02,1774.54H1246.44l6.41-24.91h183.58Z" transform="translate(-945.484 -1508.19)" fill="#e6d0be"/>
          </g>
          <g id="Group_6" data-name="Group 6" transform="translate(240.848 137.434)">
            <path id="Path_26" data-name="Path 26" d="M1049.02,1465.31a1,1,0,0,1-.8-.4l-30.6-41.21.758-.6,50.839-40.432a1,1,0,0,1,1.244,1.564l-50.081,39.83,29.449,39.655a1,1,0,0,1-.206,1.4A.946.946,0,0,1,1049.02,1465.31Z" transform="translate(-1017.612 -1382.444)" fill="#363e44"/>
            <path id="Path_27" data-name="Path 27" d="M1115.25,1465.31a1,1,0,0,1-.623-1.782l50.08-39.831-29.449-39.654a1,1,0,0,1,1.605-1.193l30.6,41.209-.758.6-50.838,40.433A.984.984,0,0,1,1115.25,1465.31Z" transform="translate(-1017.612 -1382.444)" fill="#363e44"/>
            <path id="Path_28" data-name="Path 28" d="M1065.47,1462.82a1,1,0,0,1-.812-1.583l54.5-76.167a1,1,0,0,1,1.627,1.165l-54.5,76.167A.975.975,0,0,1,1065.47,1462.82Z" transform="translate(-1017.612 -1382.444)" fill="#363e44"/>
          </g>
        </g>
        <g id="Group_10" data-name="Group 10" transform="translate(849.747 166.144)">
          <g id="Group_8" data-name="Group 8">
            <path id="Path_29" data-name="Path 29" d="M1185.74,567.692v514.129c0,36.7,109.1,66.445,243.684,66.445s243.683-29.749,243.683-66.445V567.692Z" transform="translate(-1184.747 -501.144)" fill="#e6d0be"/>
            <path id="Path_30" data-name="Path 30" d="M1429.43,1149.27c-65.177,0-126.465-6.924-172.573-19.5-46.5-12.68-72.11-29.708-72.11-47.949V566.692h489.367v515.129c0,18.241-25.609,35.27-72.11,47.949C1555.89,1142.34,1494.6,1149.27,1429.43,1149.27ZM1186.74,568.692v513.129c0,17.006,25.746,33.779,70.636,46.02,45.942,12.526,107.044,19.426,172.048,19.426s126.1-6.9,172.047-19.426c44.891-12.24,70.637-29.014,70.637-46.02V568.692Z" transform="translate(-1184.747 -501.144)" fill="#fff"/>
            <ellipse id="Ellipse_18" data-name="Ellipse 18" cx="243.684" cy="66.445" rx="243.684" ry="66.445" transform="translate(0.999)" fill="#fff"/>
            <ellipse id="Ellipse_19" data-name="Ellipse 19" cx="191.928" cy="41.936" rx="191.928" ry="41.936" transform="translate(52.755 19.541)" fill="#f2e6dc"/>
            <path id="Path_31" data-name="Path 31" d="M1429.43,806.445c-65.177,0-126.464-6.924-172.573-19.5-46.5-12.68-72.11-29.708-72.11-47.948a1,1,0,0,1,2,0c0,17.006,25.746,33.778,70.636,46.019,45.943,12.527,107.044,19.427,172.048,19.427s126.1-6.9,172.048-19.427c44.89-12.24,70.636-29.013,70.636-46.019a1,1,0,0,1,2,0c0,18.24-25.609,35.269-72.11,47.948C1555.89,799.521,1494.6,806.445,1429.43,806.445Z" transform="translate(-1184.747 -501.144)" fill="#fff"/>
            <path id="Path_32" data-name="Path 32" d="M1429.43,977.856c-65.177,0-126.464-6.924-172.573-19.5-46.5-12.68-72.11-29.708-72.11-47.948a1,1,0,0,1,2,0c0,17.006,25.746,33.778,70.636,46.019,45.943,12.527,107.044,19.427,172.048,19.427s126.1-6.9,172.048-19.427c44.89-12.24,70.636-29.013,70.636-46.019a1,1,0,0,1,2,0c0,18.24-25.609,35.269-72.11,47.948C1555.89,970.933,1494.6,977.856,1429.43,977.856Z" transform="translate(-1184.747 -501.144)" fill="#fff"/>
          </g>
          <g id="Group_9" data-name="Group 9" transform="translate(291.99 129.089)">
            <path id="Path_33" data-name="Path 33" d="M1477.73,696.781V1210.91c0,36.7,109.1,66.445,243.684,66.445s243.683-29.749,243.683-66.445V696.781Z" transform="translate(-1476.737 -630.233)" fill="#e6d0be"/>
            <path id="Path_34" data-name="Path 34" d="M1721.42,1278.35c-65.176,0-126.464-6.924-172.573-19.5-46.5-12.679-72.11-29.708-72.11-47.948V695.78H1966.1v515.13c0,18.24-25.609,35.27-72.11,47.948C1847.88,1271.43,1786.59,1278.35,1721.42,1278.35ZM1478.73,697.78v513.13c0,17.005,25.746,33.778,70.637,46.019,45.942,12.527,107.043,19.427,172.047,19.427s126.1-6.9,172.047-19.427c44.891-12.24,70.637-29.014,70.637-46.019V697.78Z" transform="translate(-1476.737 -630.233)" fill="#fff"/>
            <ellipse id="Ellipse_20" data-name="Ellipse 20" cx="243.684" cy="66.445" rx="243.684" ry="66.445" transform="translate(0.999)" fill="#fff"/>
            <ellipse id="Ellipse_21" data-name="Ellipse 21" cx="191.928" cy="41.936" rx="191.928" ry="41.936" transform="translate(52.755 19.541)" fill="#f2e6dc"/>
            <path id="Path_35" data-name="Path 35" d="M1721.42,935.533c-65.177,0-126.465-6.924-172.573-19.5-46.5-12.68-72.11-29.708-72.11-47.948a1,1,0,0,1,2,0c0,17.005,25.746,33.778,70.636,46.018,45.942,12.527,107.044,19.426,172.048,19.426s126.1-6.9,172.048-19.426c44.89-12.24,70.636-29.014,70.636-46.018a1,1,0,0,1,2,0c0,18.24-25.609,35.268-72.11,47.948C1847.88,928.609,1786.6,935.533,1721.42,935.533Z" transform="translate(-1476.737 -630.233)" fill="#fff"/>
            <path id="Path_36" data-name="Path 36" d="M1721.42,1106.94c-65.177,0-126.465-6.924-172.573-19.5-46.5-12.68-72.11-29.708-72.11-47.948a1,1,0,0,1,2,0c0,17.005,25.746,33.778,70.636,46.019,45.942,12.527,107.044,19.426,172.048,19.426s126.1-6.9,172.048-19.426c44.89-12.24,70.636-29.014,70.636-46.019a1,1,0,0,1,2,0c0,18.24-25.609,35.269-72.11,47.948C1847.88,1100.02,1786.6,1106.94,1721.42,1106.94Z" transform="translate(-1476.737 -630.233)" fill="#fff"/>
          </g>
        </g>
        <g id="Group_14" data-name="Group 14" transform="translate(1075.293 658.052)">
          <g id="Group_11" data-name="Group 11">
            <path id="Path_37" data-name="Path 37" d="M1895.03,1037.84s-371.8-12.341-375.312,1.3l-109.425,425.073h600.076l109.422-425.069C2123.3,1025.51,1895.03,1037.84,1895.03,1037.84Z" transform="translate(-1410.293 -993.052)" fill="#f7f1eb"/>
            <path id="Path_38" data-name="Path 38" d="M2131.65,993.052H1531.58l-11.87,46.1h600.08Z" transform="translate(-1410.293 -993.052)" fill="#8b865c"/>
            <path id="Path_39" data-name="Path 39" d="M1566.7,1016.42c-1.49,5.79-7.393,10.484-13.183,10.484s-9.276-4.694-7.786-10.484,7.392-10.484,13.183-10.484S1568.19,1010.63,1566.7,1016.42Z" transform="translate(-1410.293 -993.052)" fill="#fff"/>
            <path id="Path_40" data-name="Path 40" d="M1600.57,1016.42c-1.49,5.79-7.393,10.484-13.183,10.484s-9.276-4.694-7.786-10.484,7.392-10.484,13.183-10.484S1602.06,1010.63,1600.57,1016.42Z" transform="translate(-1410.293 -993.052)" fill="#fff"/>
            <path id="Path_41" data-name="Path 41" d="M1634.45,1016.42c-1.49,5.79-7.392,10.484-13.183,10.484s-9.276-4.694-7.786-10.484,7.392-10.484,13.183-10.484S1635.94,1010.63,1634.45,1016.42Z" transform="translate(-1410.293 -993.052)" fill="#fff"/>
          </g>
          <g id="Group_12" data-name="Group 12" transform="translate(107.377 167.508)">
            <path id="Path_42" data-name="Path 42" d="M1878.41,1176.41H1517.67l4.08-15.85h360.74Z" transform="translate(-1517.67 -1160.56)" fill="#8b865c"/>
            <path id="Path_43" data-name="Path 43" d="M2032.07,1176.41H1902.43l4.08-15.85h129.64Z" transform="translate(-1517.67 -1160.56)" fill="#9e9569"/>
            <path id="Path_44" data-name="Path 44" d="M1775.59,1227.63H1671.56l4.08-15.85h104.03Z" transform="translate(-1517.67 -1160.56)" fill="#776e42"/>
            <path id="Path_45" data-name="Path 45" d="M2006.09,1227.63H1799.61l4.08-15.85h206.48Z" transform="translate(-1517.67 -1160.56)" fill="#8b865c"/>
            <path id="Path_46" data-name="Path 46" d="M1736.04,1381.3H1632.01l4.08-15.86h104.03Z" transform="translate(-1517.67 -1160.56)" fill="#9e9569"/>
            <path id="Path_47" data-name="Path 47" d="M1966.54,1381.3H1760.06l4.08-15.86h206.48Z" transform="translate(-1517.67 -1160.56)" fill="#776e42"/>
            <path id="Path_48" data-name="Path 48" d="M1941.68,1278.85H1722.4l4.08-15.85h219.28Z" transform="translate(-1517.67 -1160.56)" fill="#9e9569"/>
            <path id="Path_49" data-name="Path 49" d="M1826.06,1330.07H1709.22l4.08-15.85h116.84Z" transform="translate(-1517.67 -1160.56)" fill="#8b865c"/>
          </g>
          <g id="Group_13" data-name="Group 13" transform="translate(152.785 87.111)">
            <path id="Path_50" data-name="Path 50" d="M1583.57,1133.63a1,1,0,0,1-.8-.4l-19.688-26.511,33.114-26.335a1,1,0,1,1,1.244,1.564l-31.6,25.132,18.533,24.956a1,1,0,0,1-.206,1.4A.966.966,0,0,1,1583.57,1133.63Z" transform="translate(-1563.078 -1080.163)" fill="#363e44"/>
            <path id="Path_51" data-name="Path 51" d="M1625.72,1133.63a1,1,0,0,1-.623-1.782l31.6-25.132-18.534-24.956a1,1,0,0,1,1.605-1.193l19.688,26.511-33.115,26.335A.979.979,0,0,1,1625.72,1133.63Z" transform="translate(-1563.078 -1080.163)" fill="#363e44"/>
            <path id="Path_52" data-name="Path 52" d="M1594.04,1132.05a1,1,0,0,1-.812-1.583l34.688-48.477a1,1,0,1,1,1.627,1.165l-34.688,48.477A1.016,1.016,0,0,1,1594.04,1132.05Z" transform="translate(-1563.078 -1080.163)" fill="#363e44"/>
          </g>
        </g>
        <g id="Group_21" data-name="Group 21" transform="translate(34.386 665.256)">
          <g id="Group_15" data-name="Group 15" transform="translate(476.576)">
            <path id="Path_53" data-name="Path 53" d="M1041.47,1211.25q-.411,0-.823-.023c-11.51-.644-20.121-14.617-19.2-31.149.444-7.941,2.991-15.3,7.173-20.724,4.268-5.534,9.732-8.427,15.376-8.091,5.648.315,10.754,3.779,14.378,9.754,3.552,5.855,5.263,13.453,4.818,21.4C1062.3,1198.55,1052.64,1211.25,1041.47,1211.25Zm1.7-58.01c-4.717,0-9.292,2.582-12.958,7.335-3.938,5.106-6.339,12.072-6.761,19.614-.863,15.432,6.9,28.459,17.312,29.042q.361.019.722.02c10.108,0,18.877-11.876,19.72-26.95.422-7.542-1.188-14.732-4.532-20.246-3.271-5.394-7.81-8.517-12.779-8.8C1043.65,1153.25,1043.41,1153.24,1043.17,1153.24Z" transform="translate(-845.963 -1000.256)" fill="#363e44"/>
            <path id="Path_54" data-name="Path 54" d="M1036,1175.71c2.569-45.2.083-71.769-18.4-92.287-24.839-27.574-65.525-23.79-69.766-23.331-2.708.293-41.457,2.141-61.828,35.439-20.118,32.884-22.119,75.274-3.027,108.362l-33.11,78.465a49.506,49.506,0,0,0,26.364,64.858l5.706,2.408A49.506,49.506,0,0,0,946.8,1323.26l22.118-52.415c16.544,5.406,31.141,6.109,39.623.154C1023.73,1260.33,1032.97,1228.93,1036,1175.71Z" transform="translate(-845.963 -1000.256)" fill="#bc8271"/>
            <path id="Path_55" data-name="Path 55" d="M1097.56,1038.01l-29.913-7.225a72.911,72.911,0,0,1-3.709,11.336q-.912,2.166-1.9,4.157a5.245,5.245,0,0,1-9.94-2.475c0-.117.006-.233.009-.351a76.2,76.2,0,0,0-1.487-16.781l-109.37-26.415a45.084,45.084,0,0,1-2.676,27.678c-8.211,18.461-26.331,24.1-29.121,24.921-33.082,14.931-55.35,46.049-57.489,80.768-2.577,41.824,25.251,69.553,29.527,73.675q11.631,3.066,23.919,5.892c15.7,3.6,30.866,6.551,45.429,8.967-10.856-9.478-12.911-23.75-9.279-36.323,3.979-13.775,19.839-24.337,33.682-19.1,8.792,3.329,14.019,10.867,14.368,27.819,6.241-.567,13.777-1.638,20.018-2.2q-1.7-24.423-3.394-48.844c2.564-.145,61.438-4.417,84.367-52.022C1101.27,1069.35,1099.24,1048.03,1097.56,1038.01Z" transform="translate(-845.963 -1000.256)" fill="#363e44"/>
            <path id="Path_56" data-name="Path 56" d="M988.519,1184.51a1,1,0,0,1-.137-1.99l72.54-10.122a1,1,0,1,1,.277,1.981l-72.54,10.122A.745.745,0,0,1,988.519,1184.51Z" transform="translate(-845.963 -1000.256)" fill="#363e44"/>
            <path id="Path_57" data-name="Path 57" d="M970.154,1270.91a1,1,0,0,1-.931-1.364l7.587-19.4a1,1,0,0,1,1.863.729l-7.587,19.4A1.014,1.014,0,0,1,970.154,1270.91Z" transform="translate(-845.963 -1000.256)" fill="#363e44"/>
            <path id="Path_58" data-name="Path 58" d="M968.206,1202.49a1,1,0,0,1-.942-.665c-1.175-3.3-2.178-6.294-3.24-9.46-.866-2.581-1.759-5.241-2.789-8.2a1,1,0,0,1,1.888-.658c1.033,2.969,1.928,5.636,2.8,8.223,1.06,3.158,2.061,6.141,3.229,9.427a1,1,0,0,1-.607,1.277A1.057,1.057,0,0,1,968.206,1202.49Z" transform="translate(-845.963 -1000.256)" fill="#363e44"/>
          </g>
          <path id="Path_59" data-name="Path 59" d="M451.757,1994.61s-21.181,110.17,33.74,161.765H1486.23s117.416-280.357-497.71-257.108Z" transform="translate(-369.386 -1000.256)" fill="#363e44"/>
          <g id="Group_20" data-name="Group 20" transform="translate(0 52.445)">
            <g id="Group_16" data-name="Group 16" transform="translate(0 263.953)">
              <path id="Path_60" data-name="Path 60" d="M447.149,1581.81c-7.072,1.523-37.544,73.714-68.114,150.493-34.964,87.814,29.388,183.305,123.9,183.98l31.267.223L663.27,1560.677Z" transform="translate(-369.386 -1316.654)" fill="#bc8271"/>
              <path id="Path_61" data-name="Path 61" d="M551.513,1592.41H397.24l75.428-151.86a223.173,223.173,0,0,1,199.876-123.9h235.53Z" transform="translate(-369.386 -1316.654)" fill="#8b865c"/>
            </g>
            <g id="Group_17" data-name="Group 17" transform="translate(802.188)">
              <path id="Path_62" data-name="Path 62" d="M1224.09,1398.46c87.162,35.267,167.26,55.545,223.585,96.246,69.745,50.4,97.551,125.862,65.805,159.623-33.288,35.4-165.378,61.246-341.906-18.739C1175.67,1563.38,1180.63,1470.76,1224.09,1398.46Z" transform="translate(-1171.574 -1052.701)" fill="#bc8271"/>
              <path id="Path_63" data-name="Path 63" d="M1372.83,1494.2c21.285-49.919,74.664-161.448,120.28-244.236,47.906-86.945,131.3-208.337,148.127-196.453,9.587,6.769,1.637,25.676-22.971,74.8,3.728-1.24,15.186-2.749,23.048,4.987,11.636,11.449,5.727,23.939,5.64,25.266,1.23-.523,14.636-5.787,23.723.558,10.235,7.148,12.7,17.691,10.727,27.286,3.092-1.2,14.95-4.478,23.5,1.878,8.8,6.538,13.237,19.75,7.57,29.684-10.4,18.224-42.33,71.8-54.693,99.76-24.33,55.029-84.5,262.048-140.685,332.289C1475.83,1584,1414.1,1560.21,1372.83,1494.2Z" transform="translate(-1171.574 -1052.701)" fill="#bc8271"/>
              <path id="Path_64" data-name="Path 64" d="M1587.43,1148.69a.989.989,0,0,1-.616-.213l-13.075-10.263a1,1,0,0,1,1.234-1.574l13.075,10.263a1,1,0,0,1-.618,1.787Z" transform="translate(-1171.574 -1052.701)" fill="#363e44"/>
              <path id="Path_65" data-name="Path 65" d="M1620.65,1174.69a.984.984,0,0,1-.616-.214l-13.075-10.264a1,1,0,0,1,1.234-1.572l13.075,10.264a1,1,0,0,1-.618,1.786Z" transform="translate(-1171.574 -1052.701)" fill="#363e44"/>
              <path id="Path_66" data-name="Path 66" d="M1654.76,1200.78a.984.984,0,0,1-.616-.214l-13.075-10.264a1,1,0,1,1,1.234-1.572l13.075,10.264a1,1,0,0,1-.618,1.786Z" transform="translate(-1171.574 -1052.701)" fill="#363e44"/>
              <path id="Path_67" data-name="Path 67" d="M1685.21,1225.09a.989.989,0,0,1-.616-.213l-13.075-10.264a1,1,0,0,1,1.234-1.572l13.075,10.262a1,1,0,0,1-.618,1.787Z" transform="translate(-1171.574 -1052.701)" fill="#363e44"/>
            </g>
            <g id="Group_18" data-name="Group 18" transform="translate(27.854 263.692)">
              <path id="Path_68" data-name="Path 68" d="M818.255,1316.66c251.5-5.949,459.657,89.312,459.657,89.312l-24.079,273.458-106.877,1.984-65.089,219.829-79.084-2.261-52.456,138.924-553.087,6.269,105.1-373.125S556.684,1322.84,818.255,1316.66Z" transform="translate(-397.24 -1316.393)" fill="#8b865c"/>
              <path id="Path_69" data-name="Path 69" d="M1148.01,1680.65a1,1,0,0,1-1-.959c-.371-8.938-.561-19.938-.743-30.574s-.373-21.612-.742-30.527a1,1,0,0,1,.958-1.04,1.015,1.015,0,0,1,1.04.958c.371,8.938.561,19.938.743,30.574s.373,21.612.742,30.527a1,1,0,0,1-.958,1.04Z" transform="translate(-397.24 -1316.393)" fill="#363e44"/>
              <path id="Path_70" data-name="Path 70" d="M521.992,1582.81a1,1,0,0,1-.96-1.28l30-102.891a1,1,0,1,1,1.92.56l-30,102.891A1,1,0,0,1,521.992,1582.81Z" transform="translate(-397.24 -1316.393)" fill="#363e44"/>
            </g>
            <g id="Group_19" data-name="Group 19" transform="translate(269.238 216.18)">
              <path id="Path_71" data-name="Path 71" d="M668.1,1314.09s27.831-45.042,87.873-45.209,280.725,46.8,280.725,46.8l10.007,24.9s-175.2,103.4-301.059,118.292S620.74,1355.26,668.1,1314.09Z" transform="translate(-638.625 -1268.88)" fill="#efbc73"/>
              <path id="Path_72" data-name="Path 72" d="M799.2,1368.38c-25.352,0-41.908-4.818-52.719-10.993-15.977-9.125-18.161-20.557-18.246-21.039a1,1,0,0,1,1.968-.35c.019.11,2.178,11.088,17.4,19.727,26.338,14.949,87.408,21.662,228.779-31.248a1,1,0,0,1,.7,1.873C892.482,1358.01,836.384,1368.38,799.2,1368.38Z" transform="translate(-638.625 -1268.88)" fill="#363e44"/>
            </g>
          </g>
        </g>
        <g id="Group_25" data-name="Group 25" transform="translate(1220.928 1431.39)">
          <g id="Group_22" data-name="Group 22">
            <path id="Path_73" data-name="Path 73" d="M2150.5,1888.77H1556.928a1,1,0,0,1-1-1V1767.39a1,1,0,0,1,1-1H2150.5a1,1,0,0,1,1,1v120.38A1,1,0,0,1,2150.5,1888.77Zm-592.57-2H2149.5V1768.39H1557.93v118.38Z" transform="translate(-1555.928 -1766.39)" fill="#363e44"/>
            <rect id="Rectangle_2" data-name="Rectangle 2" width="180.783" height="87.245" transform="translate(37.162 16.75)" fill="#d87355"/>
            <path id="Path_74" data-name="Path 74" d="M1797.41,1871.56a1,1,0,0,1-1-1v-24.542a1,1,0,0,1,2,0v24.542A1,1,0,0,1,1797.41,1871.56Z" transform="translate(-1555.928 -1766.39)" fill="#363e44"/>
            <path id="Path_75" data-name="Path 75" d="M1797.41,1822.85a1,1,0,0,1-1-1v-38.712a1,1,0,0,1,2,0v38.712A1,1,0,0,1,1797.41,1822.85Z" transform="translate(-1555.928 -1766.39)" fill="#363e44"/>
            <path id="Path_76" data-name="Path 76" d="M1825.53,1871.56a1,1,0,0,1-1-1v-43.789a1,1,0,0,1,2,0v43.789A1,1,0,0,1,1825.53,1871.56Z" transform="translate(-1555.928 -1766.39)" fill="#363e44"/>
            <path id="Path_77" data-name="Path 77" d="M1825.53,1800.71a1,1,0,0,1-1-1v-16.563a1,1,0,0,1,2,0v16.563A1,1,0,0,1,1825.53,1800.71Z" transform="translate(-1555.928 -1766.39)" fill="#363e44"/>
            <path id="Path_78" data-name="Path 78" d="M1853.65,1871.56a1,1,0,0,1-1-1v-24.542a1,1,0,0,1,2,0v24.542A1,1,0,0,1,1853.65,1871.56Z" transform="translate(-1555.928 -1766.39)" fill="#363e44"/>
            <path id="Path_79" data-name="Path 79" d="M1853.65,1813.39a1,1,0,0,1-1-1v-29.244a1,1,0,0,1,2,0v29.244A1,1,0,0,1,1853.65,1813.39Z" transform="translate(-1555.928 -1766.39)" fill="#363e44"/>
            <path id="Path_80" data-name="Path 80" d="M1881.77,1871.56a1,1,0,0,1-1-1v-48.7a1,1,0,0,1,2,0v48.7A1,1,0,0,1,1881.77,1871.56Z" transform="translate(-1555.928 -1766.39)" fill="#363e44"/>
            <path id="Path_81" data-name="Path 81" d="M1881.77,1803.5a1,1,0,0,1-1-1v-19.357a1,1,0,0,1,2,0V1802.5A1,1,0,0,1,1881.77,1803.5Z" transform="translate(-1555.928 -1766.39)" fill="#363e44"/>
            <path id="Path_82" data-name="Path 82" d="M1909.89,1871.56a1,1,0,0,1-1-1v-16.747a1,1,0,0,1,2,0v16.747A1,1,0,0,1,1909.89,1871.56Z" transform="translate(-1555.928 -1766.39)" fill="#363e44"/>
            <path id="Path_83" data-name="Path 83" d="M1909.89,1822.86a1,1,0,0,1-1-1v-38.714a1,1,0,0,1,2,0v38.714A1,1,0,0,1,1909.89,1822.86Z" transform="translate(-1555.928 -1766.39)" fill="#363e44"/>
            <path id="Path_84" data-name="Path 84" d="M1938.01,1871.56a1,1,0,0,1-1-1v-51.874a1,1,0,0,1,2,0v51.874A1,1,0,0,1,1938.01,1871.56Z" transform="translate(-1555.928 -1766.39)" fill="#363e44"/>
            <path id="Path_85" data-name="Path 85" d="M1938.01,1800.71a1,1,0,0,1-1-1v-16.563a1,1,0,0,1,2,0v16.563A1,1,0,0,1,1938.01,1800.71Z" transform="translate(-1555.928 -1766.39)" fill="#363e44"/>
          </g>
          <g id="Group_23" data-name="Group 23" transform="translate(0 131.74)">
            <path id="Path_86" data-name="Path 86" d="M2150.5,2020.51H1556.928a1,1,0,0,1-1-1V1899.13a1,1,0,0,1,1-1H2150.5a1,1,0,0,1,1,1v120.379A1,1,0,0,1,2150.5,2020.51Zm-592.57-2H2149.5V1900.13H1557.93v118.38Z" transform="translate(-1555.928 -1898.13)" fill="#363e44"/>
            <rect id="Rectangle_3" data-name="Rectangle 3" width="180.783" height="87.245" transform="translate(37.162 16.75)" fill="#d87355"/>
            <path id="Path_87" data-name="Path 87" d="M1797.41,2003.3a1,1,0,0,1-1-1v-24.542a1,1,0,0,1,2,0V2002.3A1,1,0,0,1,1797.41,2003.3Z" transform="translate(-1555.928 -1898.13)" fill="#363e44"/>
            <path id="Path_88" data-name="Path 88" d="M1797.41,1954.6a1,1,0,0,1-1-1v-38.713a1,1,0,0,1,2,0V1953.6A1,1,0,0,1,1797.41,1954.6Z" transform="translate(-1555.928 -1898.13)" fill="#363e44"/>
            <path id="Path_89" data-name="Path 89" d="M1825.53,2003.3a1,1,0,0,1-1-1v-43.79a1,1,0,0,1,2,0v43.79A1,1,0,0,1,1825.53,2003.3Z" transform="translate(-1555.928 -1898.13)" fill="#363e44"/>
            <path id="Path_90" data-name="Path 90" d="M1825.53,1932.45a1,1,0,0,1-1-1v-16.564a1,1,0,0,1,2,0v16.564A1,1,0,0,1,1825.53,1932.45Z" transform="translate(-1555.928 -1898.13)" fill="#363e44"/>
            <path id="Path_91" data-name="Path 91" d="M1853.65,2003.3a1,1,0,0,1-1-1v-24.542a1,1,0,0,1,2,0V2002.3A1,1,0,0,1,1853.65,2003.3Z" transform="translate(-1555.928 -1898.13)" fill="#363e44"/>
            <path id="Path_92" data-name="Path 92" d="M1853.65,1945.13a1,1,0,0,1-1-1v-29.244a1,1,0,0,1,2,0v29.244A1,1,0,0,1,1853.65,1945.13Z" transform="translate(-1555.928 -1898.13)" fill="#363e44"/>
            <path id="Path_93" data-name="Path 93" d="M1881.77,2003.3a1,1,0,0,1-1-1v-48.7a1,1,0,0,1,2,0v48.7A1,1,0,0,1,1881.77,2003.3Z" transform="translate(-1555.928 -1898.13)" fill="#363e44"/>
            <path id="Path_94" data-name="Path 94" d="M1881.77,1935.24a1,1,0,0,1-1-1v-19.357a1,1,0,0,1,2,0v19.357A1,1,0,0,1,1881.77,1935.24Z" transform="translate(-1555.928 -1898.13)" fill="#363e44"/>
            <path id="Path_95" data-name="Path 95" d="M1909.89,2003.3a1,1,0,0,1-1-1v-16.748a1,1,0,0,1,2,0V2002.3A1,1,0,0,1,1909.89,2003.3Z" transform="translate(-1555.928 -1898.13)" fill="#363e44"/>
            <path id="Path_96" data-name="Path 96" d="M1909.89,1954.6a1,1,0,0,1-1-1v-38.714a1,1,0,0,1,2,0V1953.6A1,1,0,0,1,1909.89,1954.6Z" transform="translate(-1555.928 -1898.13)" fill="#363e44"/>
            <path id="Path_97" data-name="Path 97" d="M1938.01,2003.3a1,1,0,0,1-1-1v-51.875a1,1,0,0,1,2,0V2002.3A1,1,0,0,1,1938.01,2003.3Z" transform="translate(-1555.928 -1898.13)" fill="#363e44"/>
            <path id="Path_98" data-name="Path 98" d="M1938.01,1932.45a1,1,0,0,1-1-1v-16.564a1,1,0,0,1,2,0v16.564A1,1,0,0,1,1938.01,1932.45Z" transform="translate(-1555.928 -1898.13)" fill="#363e44"/>
          </g>
          <g id="Group_24" data-name="Group 24" transform="translate(0 263.48)">
            <path id="Path_99" data-name="Path 99" d="M2150.5,2152.25H1556.928a1,1,0,0,1-1-1V2030.87a1,1,0,0,1,1-1H2150.5a1,1,0,0,1,1,1v120.379A1,1,0,0,1,2150.5,2152.25Zm-592.57-2H2149.5V2031.87H1557.93v118.38Z" transform="translate(-1555.928 -2029.87)" fill="#363e44"/>
            <rect id="Rectangle_4" data-name="Rectangle 4" width="180.783" height="87.245" transform="translate(37.162 16.76)" fill="#d87355"/>
            <path id="Path_100" data-name="Path 100" d="M1797.41,2135.04a1,1,0,0,1-1-1V2109.5a1,1,0,0,1,2,0v24.542A1,1,0,0,1,1797.41,2135.04Z" transform="translate(-1555.928 -2029.87)" fill="#363e44"/>
            <path id="Path_101" data-name="Path 101" d="M1797.41,2086.34a1,1,0,0,1-1-1v-38.712a1,1,0,0,1,2,0v38.712A1,1,0,0,1,1797.41,2086.34Z" transform="translate(-1555.928 -2029.87)" fill="#363e44"/>
            <path id="Path_102" data-name="Path 102" d="M1825.53,2135.04a1,1,0,0,1-1-1v-43.79a1,1,0,0,1,2,0v43.79A1,1,0,0,1,1825.53,2135.04Z" transform="translate(-1555.928 -2029.87)" fill="#363e44"/>
            <path id="Path_103" data-name="Path 103" d="M1825.53,2064.19a1,1,0,0,1-1-1v-16.563a1,1,0,0,1,2,0v16.563A1,1,0,0,1,1825.53,2064.19Z" transform="translate(-1555.928 -2029.87)" fill="#363e44"/>
            <path id="Path_104" data-name="Path 104" d="M1853.65,2135.04a1,1,0,0,1-1-1V2109.5a1,1,0,0,1,2,0v24.542A1,1,0,0,1,1853.65,2135.04Z" transform="translate(-1555.928 -2029.87)" fill="#363e44"/>
            <path id="Path_105" data-name="Path 105" d="M1853.65,2076.87a1,1,0,0,1-1-1v-29.244a1,1,0,0,1,2,0v29.244A1,1,0,0,1,1853.65,2076.87Z" transform="translate(-1555.928 -2029.87)" fill="#363e44"/>
            <path id="Path_106" data-name="Path 106" d="M1881.77,2135.04a1,1,0,0,1-1-1v-48.7a1,1,0,0,1,2,0v48.7A1,1,0,0,1,1881.77,2135.04Z" transform="translate(-1555.928 -2029.87)" fill="#363e44"/>
            <path id="Path_107" data-name="Path 107" d="M1881.77,2066.98a1,1,0,0,1-1-1v-19.357a1,1,0,0,1,2,0v19.357A1,1,0,0,1,1881.77,2066.98Z" transform="translate(-1555.928 -2029.87)" fill="#363e44"/>
            <path id="Path_108" data-name="Path 108" d="M1909.89,2135.04a1,1,0,0,1-1-1v-16.748a1,1,0,0,1,2,0v16.748A1,1,0,0,1,1909.89,2135.04Z" transform="translate(-1555.928 -2029.87)" fill="#363e44"/>
            <path id="Path_109" data-name="Path 109" d="M1909.89,2086.34a1,1,0,0,1-1-1v-38.713a1,1,0,0,1,2,0v38.713A1,1,0,0,1,1909.89,2086.34Z" transform="translate(-1555.928 -2029.87)" fill="#363e44"/>
            <path id="Path_110" data-name="Path 110" d="M1938.01,2135.04a1,1,0,0,1-1-1v-51.875a1,1,0,0,1,2,0v51.875A1,1,0,0,1,1938.01,2135.04Z" transform="translate(-1555.928 -2029.87)" fill="#363e44"/>
            <path id="Path_111" data-name="Path 111" d="M1938.01,2064.19a1,1,0,0,1-1-1v-16.563a1,1,0,0,1,2,0v16.563A1,1,0,0,1,1938.01,2064.19Z" transform="translate(-1555.928 -2029.87)" fill="#363e44"/>
          </g>
        </g>
      </g>
    </g>
  </g>
</svg>
